<svg width="105" height="26" viewBox="0 0 105 26" fill="none" xmlns="http://www.w3.org/2000/svg">
<path d="M0 20.7839V0.596191H8.52508C10.5234 0.596191 12.2101 1.02081 13.5851 1.87004C14.9601 2.70081 15.996 3.87311 16.6927 5.38696C17.4077 6.90081 17.7652 8.67311 17.7652 10.7039C17.7652 12.1993 17.5635 13.5747 17.1602 14.83C16.7568 16.067 16.161 17.1285 15.3726 18.0147C14.6026 18.9008 13.6401 19.5839 12.4851 20.0639C11.3484 20.5439 10.0284 20.7839 8.52508 20.7839H0ZM4.06648 17.1008H8.10674C8.91342 17.1008 9.9251 16.99 10.6034 16.7685C11.2818 16.547 12.003 16.187 12.498 15.6885C12.993 15.19 13.5126 14.5254 13.7876 13.6947C14.0626 12.8639 14.2001 11.8393 14.2001 10.6208C14.2001 9.03312 13.9618 7.77773 13.4851 6.85465C13.0085 5.93158 12.223 5.26696 11.398 4.86081C10.573 4.45465 9.20675 4.25158 8.10674 4.25158H4.06648V17.1008Z" fill="#181C30"/>
<path d="M4.06396 9.26942L8.16144 17.0987H12.3353L19.0386 4.2478H15.4391L10.2869 13.7185H10.1583L7.73798 9.26942H4.06396Z" fill="url(#paint0_linear_307_479)"/>
<path d="M24.3268 21.0293C23.1824 21.0293 22.2134 20.8078 21.4197 20.3648C20.626 19.9218 20.0261 19.2666 19.62 18.399C19.2324 17.513 19.0386 16.4425 19.0386 15.1873V5.93981H23.1086V14.1075C23.1086 14.8828 23.2009 15.538 23.3855 16.0733C23.5885 16.6086 23.8931 17.0239 24.2991 17.3192C24.7237 17.5961 25.2682 17.7345 25.9327 17.7345C26.6156 17.7345 27.1971 17.5684 27.677 17.2362C28.1569 16.9039 28.526 16.4702 28.7845 15.9349C29.0429 15.3811 29.1721 14.7812 29.1721 14.1352V5.93981H33.2421V20.7801H29.3382L29.1721 18.0668H28.9783C28.6276 19.0266 28.0277 19.7649 27.1786 20.2818C26.348 20.7801 25.3974 21.0293 24.3268 21.0293Z" fill="#181C30"/>
<path d="M40.9309 20.7801C39.9342 20.7801 39.1589 20.6325 38.6052 20.3371C38.0514 20.0418 37.6638 19.6265 37.4423 19.0912C37.2393 18.5375 37.1378 17.8914 37.1378 17.1531V9.2069H34.4798V5.93981H37.1378V1.89749L41.1801 1.50987V5.93981H44.1703V9.2069H41.1801V16.3779C41.1801 16.8209 41.2816 17.1162 41.4847 17.2639C41.6877 17.4115 41.983 17.4854 42.3706 17.4854H44.1703V20.7801H40.9309Z" fill="#181C30"/>
<path d="M46.0047 20.7801V5.93981H50.0747V20.7801H46.0047ZM46.0047 4.0294V0.596191H50.0747V4.0294H46.0047Z" fill="#181C30"/>
<path d="M54.1396 20.7801V9.2069H51.7031V5.93981H54.1396V4.36164C54.1396 3.14341 54.5179 2.21128 55.2747 1.56524C56.05 0.919208 57.1205 0.596191 58.4864 0.596191H61.4767V3.33722H59.677C59.1048 3.33722 58.7172 3.4572 58.5141 3.69715C58.3111 3.91865 58.2096 4.22321 58.2096 4.61083V5.93981H61.2275V9.2069H58.2096V20.7801H54.1396Z" fill="#181C30"/>
<path d="M63.407 25.4039L62.919 22.0537H65.1236C65.5481 22.0537 65.8988 21.9984 66.1757 21.8876C66.471 21.7953 66.711 21.6292 66.8956 21.3892C67.0986 21.1677 67.2647 20.8816 67.3939 20.5309L68.1138 18.6759V20.4756L62.078 5.93981H66.5356L69.249 13.886L69.7197 15.4642H69.8581L70.3011 13.886L72.8483 5.93981H77.1952L71.4086 21.4723C71.0394 22.506 70.5872 23.3089 70.0519 23.8811C69.5166 24.4533 68.8983 24.8501 68.1969 25.0716C67.5139 25.2931 66.7479 25.4039 65.8988 25.4039H63.407Z" fill="#181C30"/>
<path d="M78.894 20.7885L85.6248 0.596191H91.7185L98.4493 20.7885H93.9621L92.6049 16.6337H84.7385L83.3812 20.7885H78.894ZM85.7356 13.3376H91.6077L89.8904 8.18562L88.7548 4.5017H88.5886L87.4529 8.18562L85.7356 13.3376Z" fill="url(#paint1_linear_307_479)"/>
<path d="M100.665 20.7885V0.596191H104.986V20.7885H100.665Z" fill="url(#paint2_linear_307_479)"/>
<defs>
<linearGradient id="paint0_linear_307_479" x1="19.0386" y1="4.2478" x2="8.06063" y2="17.0987" gradientUnits="userSpaceOnUse">
<stop stop-color="#FE6F35"/>
<stop offset="0.151042" stop-color="#F76C4F"/>
<stop offset="0.361456" stop-color="#ED6776"/>
<stop offset="0.557292" stop-color="#CC5AF3"/>
<stop offset="0.735389" stop-color="#C163EA"/>
<stop offset="0.898667" stop-color="#7A8EF5"/>
<stop offset="1" stop-color="#46B0F5"/>
</linearGradient>
<linearGradient id="paint1_linear_307_479" x1="104.986" y1="0.596191" x2="85.476" y2="24.9592" gradientUnits="userSpaceOnUse">
<stop stop-color="#FE6F35"/>
<stop offset="0.31151" stop-color="#ED6776"/>
<stop offset="0.557292" stop-color="#CC5AF3"/>
<stop offset="0.735389" stop-color="#C163EA"/>
<stop offset="0.898667" stop-color="#7A8EF5"/>
<stop offset="1" stop-color="#46B0F5"/>
</linearGradient>
<linearGradient id="paint2_linear_307_479" x1="104.986" y1="0.596191" x2="85.476" y2="24.9592" gradientUnits="userSpaceOnUse">
<stop stop-color="#FE6F35"/>
<stop offset="0.31151" stop-color="#ED6776"/>
<stop offset="0.557292" stop-color="#CC5AF3"/>
<stop offset="0.735389" stop-color="#C163EA"/>
<stop offset="0.898667" stop-color="#7A8EF5"/>
<stop offset="1" stop-color="#46B0F5"/>
</linearGradient>
</defs>
</svg>
