<svg width="728" height="172" viewBox="0 0 728 172" fill="none" xmlns="http://www.w3.org/2000/svg">
<path d="M0 139.968V0H59.1072C72.9625 0 84.6568 2.944 94.1902 8.832C103.724 14.592 110.906 22.72 115.736 33.216C120.693 43.712 123.172 56 123.172 70.08C123.172 80.448 121.774 89.984 118.977 98.688C116.181 107.264 112.05 114.624 106.584 120.768C101.245 126.912 94.5716 131.648 86.5635 134.976C78.6825 138.304 69.5304 139.968 59.1072 139.968H0ZM28.1942 114.432H56.2068C61.7997 114.432 68.814 113.664 73.5172 112.128C78.2203 110.592 83.221 108.096 86.653 104.64C90.0851 101.184 93.6876 96.576 95.5942 90.816C97.5009 85.056 98.4543 77.952 98.4543 69.504C98.4543 58.496 96.8018 49.792 93.4969 43.392C90.192 36.992 84.7464 32.384 79.0263 29.568C73.3063 26.752 63.8335 25.344 56.2068 25.344H28.1942V114.432Z" fill="#181C30"/>
<path d="M28.1758 60.1344L56.5849 114.417H85.5235L132 25.3179H107.043L71.3217 90.9811H70.43L53.649 60.1344H28.1758Z" fill="url(#paint0_linear_210_47)"/>
<path d="M168.665 141.67C160.731 141.67 154.012 140.134 148.509 137.062C143.006 133.991 138.847 129.448 136.031 123.433C133.344 117.29 132 109.868 132 101.165V37.0491H160.219V93.6786C160.219 99.0536 160.859 103.597 162.138 107.308C163.546 111.019 165.658 113.899 168.473 115.946C171.417 117.866 175.192 118.826 179.799 118.826C184.534 118.826 188.566 117.674 191.893 115.371C195.22 113.067 197.78 110.06 199.571 106.348C201.363 102.509 202.259 98.3497 202.259 93.8705V37.0491H230.478V139.942H203.411L202.259 121.129H200.915C198.484 127.784 194.324 132.903 188.438 136.487C182.679 139.942 176.088 141.67 168.665 141.67Z" fill="#181C30"/>
<path d="M283.787 139.942C276.876 139.942 271.501 138.918 267.662 136.871C263.823 134.823 261.135 131.943 259.599 128.232C258.192 124.393 257.488 119.914 257.488 114.795V59.7009H239.059V37.0491H257.488V9.02232L285.515 6.33482V37.0491H306.247V59.7009H285.515V109.42C285.515 112.491 286.218 114.539 287.626 115.562C289.034 116.586 291.081 117.098 293.769 117.098H306.247V139.942H283.787Z" fill="#181C30"/>
<path d="M318.965 139.942V37.0491H347.184V139.942H318.965ZM318.965 23.8036V0H347.184V23.8036H318.965Z" fill="#181C30"/>
<path d="M375.367 139.942V59.7009H358.474V37.0491H375.367V26.1071C375.367 17.6607 377.99 11.1979 383.237 6.71875C388.612 2.23958 396.035 0 405.505 0H426.237V19.0045H413.76C409.792 19.0045 407.105 19.8363 405.697 21.5C404.289 23.0357 403.586 25.1473 403.586 27.8348V37.0491H424.51V59.7009H403.586V139.942H375.367Z" fill="#181C30"/>
<path d="M439.621 172L436.237 148.772H451.523C454.466 148.772 456.898 148.388 458.817 147.621C460.865 146.981 462.529 145.829 463.808 144.165C465.216 142.629 466.368 140.646 467.264 138.214L472.255 125.353V137.83L430.407 37.0491H461.313L480.125 92.1429L483.389 103.085H484.349L487.42 92.1429L505.081 37.0491H535.219L495.099 144.741C492.539 151.908 489.404 157.475 485.692 161.442C481.981 165.409 477.694 168.161 472.831 169.696C468.096 171.232 462.785 172 456.898 172H439.621Z" fill="#181C30"/>
<path d="M547 140L593.667 0H635.916L682.583 140H651.472L642.062 111.193H587.521L578.111 140H547ZM594.435 88.3402H635.148L623.241 52.62L615.368 27.0782H614.215L606.342 52.62L594.435 88.3402Z" fill="url(#paint1_linear_210_47)"/>
<path d="M697.948 140V0H727.907V140H697.948Z" fill="url(#paint2_linear_210_47)"/>
<defs>
<linearGradient id="paint0_linear_210_47" x1="132" y1="25.3179" x2="55.886" y2="114.417" gradientUnits="userSpaceOnUse">
<stop stop-color="#FE6F35"/>
<stop offset="0.151042" stop-color="#F76C4F"/>
<stop offset="0.361456" stop-color="#ED6776"/>
<stop offset="0.557292" stop-color="#CC5AF3"/>
<stop offset="0.735389" stop-color="#C163EA"/>
<stop offset="0.898667" stop-color="#7A8EF5"/>
<stop offset="1" stop-color="#46B0F5"/>
</linearGradient>
<linearGradient id="paint1_linear_210_47" x1="727.907" y1="3.54294e-07" x2="592.635" y2="168.917" gradientUnits="userSpaceOnUse">
<stop stop-color="#FE6F35"/>
<stop offset="0.31151" stop-color="#ED6776"/>
<stop offset="0.557292" stop-color="#CC5AF3"/>
<stop offset="0.735389" stop-color="#C163EA"/>
<stop offset="0.898667" stop-color="#7A8EF5"/>
<stop offset="1" stop-color="#46B0F5"/>
</linearGradient>
<linearGradient id="paint2_linear_210_47" x1="727.907" y1="3.54294e-07" x2="592.635" y2="168.917" gradientUnits="userSpaceOnUse">
<stop stop-color="#FE6F35"/>
<stop offset="0.31151" stop-color="#ED6776"/>
<stop offset="0.557292" stop-color="#CC5AF3"/>
<stop offset="0.735389" stop-color="#C163EA"/>
<stop offset="0.898667" stop-color="#7A8EF5"/>
<stop offset="1" stop-color="#46B0F5"/>
</linearGradient>
</defs>
</svg>
