<svg width="24" height="24" viewBox="0 0 24 24" fill="none" xmlns="http://www.w3.org/2000/svg">
<path d="M3 6.375C3 5.87772 3.18964 5.40081 3.52721 5.04917C3.86477 4.69754 4.32261 4.5 4.8 4.5H19.2C19.6774 4.5 20.1352 4.69754 20.4728 5.04917C20.8104 5.40081 21 5.87772 21 6.375V17.625C21 18.1223 20.8104 18.5992 20.4728 18.9508C20.1352 19.3025 19.6774 19.5 19.2 19.5H4.8C4.32261 19.5 3.86477 19.3025 3.52721 18.9508C3.18964 18.5992 3 18.1223 3 17.625V6.375ZM6.1671 6.375L12 11.6916L17.8329 6.375H6.1671ZM19.2 7.62094L12.5931 13.6434C12.429 13.7932 12.2182 13.8758 12 13.8758C11.7818 13.8758 11.571 13.7932 11.4069 13.6434L4.8 7.62094V17.625H19.2V7.62094Z" fill="#181C30"/>
</svg>
